HIERARCHY
ROOT root
{
	OFFSET 0.000000 0.000000 0.000000
	CHANNELS 6 Xposition Yposition Zposition Zrotation Yrotation Xrotation
	JOINT lhip
	{
		OFFSET 0.058581 -0.082280 -0.017664
		CHANNELS 3 Zrotation Yrotation Xrotation
		JOINT lknee
		{
			OFFSET 0.043451 -0.386469 0.008037
			CHANNELS 3 Zrotation Yrotation Xrotation
			JOINT lankle
			{
				OFFSET -0.014790 -0.426874 -0.037428
				CHANNELS 3 Zrotation Yrotation Xrotation
				JOINT ltoe
				{
					OFFSET 0.041054 -0.060286 0.122042
					CHANNELS 3 Zrotation Yrotation Xrotation
					End Site
					{
						OFFSET 0.000000 0.000000 0.000000
					}
				}
			}
		}
	}
	JOINT rhip
	{
		OFFSET -0.060310 -0.090513 -0.013543
		CHANNELS 3 Zrotation Yrotation Xrotation
		JOINT rknee
		{
			OFFSET -0.043257 -0.383688 -0.004843
			CHANNELS 3 Zrotation Yrotation Xrotation
			JOINT rankle
			{
				OFFSET 0.019056 -0.420046 -0.034562
				CHANNELS 3 Zrotation Yrotation Xrotation
				JOINT rtoe
				{
					OFFSET -0.034840 -0.062106 0.130323
					CHANNELS 3 Zrotation Yrotation Xrotation
					End Site
					{
						OFFSET 0.000000 0.000000 0.000000
					}
				}
			}
		}
	}
	JOINT lowerback
	{
		OFFSET 0.004439 0.124404 -0.038385
		CHANNELS 3 Zrotation Yrotation Xrotation
		JOINT upperback
		{
			OFFSET 0.004488 0.137956 0.026820
			CHANNELS 3 Zrotation Yrotation Xrotation
			JOINT chest
			{
				OFFSET -0.002265 0.056032 0.002855
				CHANNELS 3 Zrotation Yrotation Xrotation
				JOINT lowerneck
				{
					OFFSET -0.013390 0.211636 -0.033468
					CHANNELS 3 Zrotation Yrotation Xrotation
					JOINT upperneck
					{
						OFFSET 0.010113 0.088937 0.050410
						CHANNELS 3 Zrotation Yrotation Xrotation
						End Site
						{
							OFFSET 0.000000 0.000000 0.000000
						}
					}
				}
				JOINT lclavicle
				{
					OFFSET 0.071702 0.114000 -0.018898
					CHANNELS 3 Zrotation Yrotation Xrotation
					JOINT lshoulder
					{
						OFFSET 0.122921 0.045205 -0.019046
						CHANNELS 3 Zrotation Yrotation Xrotation
						JOINT lelbow
						{
							OFFSET 0.255332 -0.015649 -0.022946
							CHANNELS 3 Zrotation Yrotation Xrotation
							JOINT lwrist
							{
								OFFSET 0.265709 0.012698 -0.007375
								CHANNELS 3 Zrotation Yrotation Xrotation
								End Site
								{
									OFFSET 0.000000 0.000000 0.000000
								}
							}
						}
					}
				}
				JOINT rclavicle
				{
					OFFSET -0.082954 0.112472 -0.023707
					CHANNELS 3 Zrotation Yrotation Xrotation
					JOINT rshoulder
					{
						OFFSET -0.113228 0.046853 -0.008472
						CHANNELS 3 Zrotation Yrotation Xrotation
						JOINT relbow
						{
							OFFSET -0.260127 -0.014369 -0.031269
							CHANNELS 3 Zrotation Yrotation Xrotation
							JOINT rwrist
							{
								OFFSET -0.269108 0.006794 -0.006027
								CHANNELS 3 Zrotation Yrotation Xrotation
								End Site
								{
									OFFSET 0.000000 0.000000 0.000000
								}
							}
						}
					}
				}
			}
		}
	}
}
MOTION
Frames: 14
Frame Time: 0.033333
0.276566 0.241896 0.985419 85.269952 0.567948 85.556781 6.032583 5.584405 9.151979 -1.530969 -2.676789 -0.036534 1.954397 8.788935 -10.614894 0.000000 -0.000000 0.000000 -3.871476 -1.255202 5.417294 -1.595221 5.644451 5.461370 2.522553 -3.263233 -10.440843 0.000000 -0.000000 0.000000 0.035159 1.543522 3.107305 1.740402 -1.560000 3.691599 -1.645647 -0.770210 0.108754 3.940393 -11.610601 -7.858254 -3.733060 -17.249841 14.670731 -29.974273 3.546539 -1.246521 -50.817458 -1.870463 5.298072 5.260911 -24.995370 11.083028 11.841161 -5.061694 3.462003 27.805910 0.857875 -1.100561 42.074226 16.835015 9.868098 -64.566597 70.150822 -49.845971 -15.996837 11.186105 -11.129845 
0.276260 0.241991 0.985634 85.314815 0.552313 85.572818 6.003075 5.523002 9.094514 -1.521474 -2.685874 0.023420 1.961471 8.798800 -10.601554 0.000000 -0.000000 0.000000 -3.881390 -1.193035 5.391614 -1.597447 5.614535 5.475732 2.697959 -3.340702 -10.442241 0.000000 -0.000000 0.000000 0.087144 1.540587 3.208662 1.654594 -1.505505 3.472788 -1.657617 -0.850085 0.163935 3.947154 -11.711907 -7.751046 -3.723485 -17.029628 14.706490 -29.947271 3.655587 -1.194421 -50.810526 -1.963980 5.388618 5.312603 -24.933314 11.281785 11.640839 -5.019333 3.227448 27.945347 0.593208 -1.144935 42.088693 16.962231 9.945869 -64.747662 70.273039 -49.938202 -15.805277 11.011155 -11.089607 
0.276245 0.241986 0.985640 85.316199 0.552141 85.573164 6.003144 5.519193 9.089186 -1.522365 -2.686659 0.030930 1.961569 8.799711 -10.602773 0.000000 -0.000000 0.000000 -3.880145 -1.190247 5.388160 -1.597747 5.614591 5.479646 2.702035 -3.346160 -10.443530 0.000000 -0.000000 0.000000 0.087562 1.540980 3.213881 1.653178 -1.504205 3.465964 -1.657522 -0.851893 0.166984 3.948591 -11.705760 -7.750119 -3.724016 -17.018223 14.712753 -29.945196 3.658543 -1.192995 -50.810347 -1.967704 5.390087 5.312861 -24.935547 11.289372 11.640815 -5.019403 3.217729 27.949028 0.586571 -1.147166 42.087517 16.963555 9.947458 -64.787098 70.277387 -49.974857 -15.810387 11.005387 -11.100683 
0.275126 0.241633 0.985728 85.275193 0.550631 85.549610 5.957851 5.156116 8.861612 -1.501385 -2.680501 0.444054 1.946667 9.008549 -10.684508 0.000000 -0.000000 0.000000 -3.731470 -0.854515 5.139770 -1.650925 5.827291 5.831006 3.040497 -3.819985 -10.562892 0.000000 -0.000000 0.000000 0.220135 1.565451 3.567766 1.461240 -1.294383 3.150233 -1.657371 -0.864312 0.457974 4.046974 -11.492246 -7.630717 -3.858499 -16.341275 15.218723 -29.531089 3.662560 -0.962858 -50.945488 -2.260132 5.585989 5.321097 -25.067316 11.870375 12.296727 -4.869015 2.243879 27.757835 0.757166 -1.056782 41.762893 17.668147 9.897934 -65.695021 70.042928 -51.134822 -17.650182 9.967875 -12.553810 
0.274491 0.241752 0.985896 85.074942 0.553395 85.576054 5.941197 5.135410 8.866239 -1.510092 -2.627256 0.362135 1.910566 9.163401 -10.601728 0.000000 -0.000000 0.000000 -3.701982 -0.671441 5.018850 -1.680782 5.881312 5.869664 3.134258 -3.904305 -10.522621 0.000000 -0.000000 0.000000 0.340402 1.569595 3.660414 1.321784 -1.078957 3.125315 -1.665742 -0.768298 0.466974 4.091491 -11.708797 -7.578884 -3.863833 -16.257369 15.352095 -29.467494 3.494855 -0.936248 -50.881436 -2.270959 5.738160 5.364350 -24.967789 11.705922 12.543918 -4.983784 2.090877 27.629091 1.170242 -0.905111 41.274271 18.229649 9.663593 -64.322180 69.735193 -50.484519 -18.349427 9.634890 -13.436112 
0.273287 0.242267 0.986106 84.890633 0.585038 85.640643 5.953200 5.284248 8.774656 -1.477047 -2.627422 0.333230 1.886306 9.204589 -10.563636 0.000000 -0.000000 0.000000 -3.672208 -0.611225 4.835152 -1.689710 5.972208 5.880577 3.092592 -3.905017 -10.455347 0.000000 -0.000000 0.000000 0.511259 1.517721 3.858517 1.173931 -0.816536 3.061675 -1.734685 -0.493915 0.428832 4.209334 -11.891008 -7.638795 -3.931126 -16.416159 15.830640 -29.415030 3.266415 -1.003891 -50.813431 -2.389624 5.912762 5.368182 -24.618952 11.657676 12.903058 -5.022447 2.034553 27.335690 1.852760 -0.879618 40.762341 19.158802 9.285998 -61.653896 68.973953 -48.587981 -19.273997 9.318997 -14.363594 
0.271957 0.242535 0.986327 84.551012 0.607740 85.755510 5.964708 5.323019 8.658344 -1.517364 -2.508966 0.284290 1.822276 9.403034 -10.479347 0.000000 -0.000000 0.000000 -3.641851 -0.580725 4.542493 -1.717908 6.095318 5.911775 3.110454 -3.720351 -10.319718 0.000000 -0.000000 0.000000 0.636739 1.617951 4.002127 1.036972 -0.477861 3.094387 -1.794671 -0.184666 0.266278 4.385609 -11.982629 -7.543691 -3.920255 -16.555217 15.910533 -29.463507 2.922556 -0.939259 -50.637452 -2.408354 6.061430 5.566703 -24.450067 11.808788 12.708100 -5.385003 1.908480 27.057067 2.676533 -0.653986 39.974804 20.200204 8.566614 -58.752555 68.079536 -45.898467 -19.636459 9.145523 -15.702873 
0.269689 0.242835 0.986574 84.538566 0.663796 85.932312 6.007665 5.264962 8.180520 -1.539143 -2.408209 0.557763 1.834911 9.386187 -10.396549 0.000000 -0.000000 0.000000 -3.557828 -0.710815 4.141554 -1.739382 6.174125 6.001261 3.029546 -3.695732 -10.185867 0.000000 -0.000000 0.000000 0.801850 1.778678 4.353286 0.897164 -0.278769 2.907480 -1.858971 0.001623 0.186489 4.576555 -12.040015 -7.820736 -4.023533 -16.695880 16.254069 -29.535000 2.628138 -1.022570 -50.417723 -2.489417 6.254902 5.699439 -24.497785 11.697409 12.778062 -5.275484 1.617017 26.850895 3.541368 -0.613769 39.178485 21.460923 7.943846 -55.892594 66.779508 -43.614641 -19.754888 8.836620 -16.391979 
0.268431 0.243430 0.986776 84.559868 0.691945 86.042577 6.016563 5.293935 7.971447 -1.539182 -2.439698 0.586761 1.832703 9.402372 -10.349045 0.000000 -0.000000 0.000000 -3.543477 -0.787173 3.937637 -1.746257 6.158729 6.001205 3.006266 -3.640397 -10.069239 0.000000 -0.000000 0.000000 0.952871 1.822501 4.551541 0.753383 0.075019 2.860613 -1.947500 0.270289 0.103529 4.826557 -12.114382 -8.012624 -4.144506 -16.893589 16.478296 -29.682260 2.570214 -1.064814 -50.148675 -2.829655 6.274380 5.739904 -24.589794 11.593284 12.453718 -5.355535 1.659530 26.697670 4.360245 -0.584729 38.190192 22.777011 7.132563 -52.396464 65.105999 -40.759920 -20.010139 9.042535 -16.066928 
0.266934 0.244077 0.987047 84.823326 0.661143 86.114374 5.968410 5.270065 7.821418 -1.500526 -2.505688 0.493144 1.708080 9.316750 -10.277357 0.000000 -0.000000 0.000000 -3.577324 -0.777112 3.828084 -1.730509 6.034411 5.982753 2.983766 -3.738797 -9.970579 0.000000 -0.000000 0.000000 0.979243 1.839474 4.892213 0.560778 0.418512 2.896209 -1.959105 0.669065 -0.113815 5.022012 -12.280424 -8.116159 -4.222113 -17.137759 16.670623 -29.775269 2.036000 -1.003688 -49.879634 -2.874400 6.693826 5.932853 -24.759569 11.409874 12.741184 -5.440518 1.354622 26.541754 5.830906 -0.278828 36.462189 24.110217 5.976054 -48.713215 62.471447 -38.228751 -20.914073 8.916532 -17.219663 
0.265371 0.244234 0.987119 84.937881 0.590941 86.119090 5.943537 5.299571 7.754527 -1.519764 -2.500340 0.410435 1.577815 9.188621 -10.146226 0.000000 -0.000000 0.000000 -3.607328 -0.689007 3.634349 -1.750561 5.907003 6.197574 2.965060 -3.795701 -9.936488 0.000000 -0.000000 0.000000 0.933197 1.896440 5.318193 0.346695 0.816118 2.977016 -1.945607 0.961861 -0.315691 5.208399 -12.538284 -8.523291 -4.300450 -17.228878 16.824201 -29.735885 1.585674 -1.064246 -49.707327 -2.873317 7.030506 5.994736 -24.898854 11.451304 12.160523 -5.604971 1.313535 26.348326 7.094652 -0.086983 35.384796 24.969772 5.004523 -46.609993 60.101253 -37.411918 -19.962417 8.844372 -18.257801 
0.264905 0.244763 0.986932 85.824696 0.582072 86.272069 5.930981 5.176921 7.316937 -1.463498 -2.922738 0.568650 1.539671 8.948661 -10.085571 0.000000 -0.000000 0.000000 -3.658037 -1.078594 3.620930 -1.702958 5.653428 6.166040 2.903079 -4.059822 -9.940317 0.000000 -0.000000 0.000000 1.028172 2.030056 5.193861 0.256575 0.675446 3.118646 -2.046869 1.016681 -0.297372 5.211049 -12.670190 -8.550752 -4.267359 -17.326222 16.860848 -29.882586 1.088723 -0.701178 -49.428325 -3.138356 7.305866 6.134863 -24.806229 11.369659 12.410055 -5.871887 1.044010 26.336361 8.171285 0.074108 34.142970 26.071121 3.847230 -43.860939 57.517679 -35.918066 -19.869327 8.848625 -19.180023 
0.263694 0.244649 0.987025 86.002803 0.613141 86.181523 6.032157 5.162359 7.322626 -1.472148 -2.876215 0.589651 1.373169 8.807834 -10.042944 0.000000 -0.000000 0.000000 -3.544992 -1.053737 3.599236 -1.776889 5.518350 6.326416 2.898929 -4.083457 -9.895513 0.000000 -0.000000 0.000000 1.105152 2.000251 5.618762 0.068618 1.127094 3.229949 -2.078624 1.333308 -0.545427 5.378477 -12.704835 -8.728038 -4.489066 -17.372257 17.130458 -30.024023 0.715953 -0.726654 -49.144898 -3.245288 7.524803 6.294402 -24.769320 10.977368 11.997797 -6.152049 1.065282 26.398977 9.264187 0.247270 32.938466 27.299144 2.712049 -41.259072 54.651589 -34.927213 -19.973958 9.053704 -19.145935 
0.263462 0.244567 0.987066 86.303861 0.564745 86.172460 6.068515 5.277693 7.343417 -1.477179 -3.087657 0.450645 1.215212 8.671189 -9.977553 0.000000 -0.000000 0.000000 -3.579250 -1.174067 3.681281 -1.781090 5.407739 6.315434 2.800354 -4.114902 -9.908349 0.000000 -0.000000 0.000000 1.131563 2.102945 5.603422 -0.106484 1.442744 3.426470 -2.172309 1.549247 -0.610231 5.542230 -12.648919 -8.578821 -4.500726 -17.400827 17.112637 -30.128487 0.549696 -0.808475 -48.860360 -3.479013 7.667590 6.233297 -24.527701 11.008968 11.651864 -6.325284 1.018231 26.100982 9.939586 0.005130 32.528265 28.384578 1.871508 -38.480667 51.922264 -32.990168 -18.561503 9.237848 -19.179829 
